<mxfile host="Electron" modified="2024-01-04T15:00:12.915Z" agent="Mozilla/5.0 (Windows NT 10.0; Win64; x64) AppleWebKit/537.36 (KHTML, like Gecko) draw.io/21.6.8 Chrome/114.0.5735.289 Electron/25.5.0 Safari/537.36" etag="aa6wyytY2cDlmEdwL8U1" version="21.6.8" type="device">
  <diagram id="C5RBs43oDa-KdzZeNtuy" name="Page-1">
    <mxGraphModel dx="864" dy="556" grid="1" gridSize="10" guides="1" tooltips="1" connect="1" arrows="1" fold="1" page="1" pageScale="1" pageWidth="827" pageHeight="1169" math="0" shadow="0">
      <root>
        <mxCell id="WIyWlLk6GJQsqaUBKTNV-0" />
        <mxCell id="WIyWlLk6GJQsqaUBKTNV-1" parent="WIyWlLk6GJQsqaUBKTNV-0" />
        <mxCell id="yEGrShc0nkDmfcy5XUrJ-1" value="Start" style="rounded=1;whiteSpace=wrap;html=1;" parent="WIyWlLk6GJQsqaUBKTNV-1" vertex="1">
          <mxGeometry x="354" y="30" width="120" height="60" as="geometry" />
        </mxCell>
        <mxCell id="yEGrShc0nkDmfcy5XUrJ-2" value="" style="endArrow=classic;html=1;rounded=0;" parent="WIyWlLk6GJQsqaUBKTNV-1" source="yEGrShc0nkDmfcy5XUrJ-1" target="yEGrShc0nkDmfcy5XUrJ-3" edge="1">
          <mxGeometry width="50" height="50" relative="1" as="geometry">
            <mxPoint x="390" y="190" as="sourcePoint" />
            <mxPoint x="414" y="130" as="targetPoint" />
          </mxGeometry>
        </mxCell>
        <mxCell id="yEGrShc0nkDmfcy5XUrJ-3" value="Blogging&lt;br&gt;System&lt;br&gt;Login Page" style="rounded=0;whiteSpace=wrap;html=1;" parent="WIyWlLk6GJQsqaUBKTNV-1" vertex="1">
          <mxGeometry x="354" y="130" width="120" height="60" as="geometry" />
        </mxCell>
        <mxCell id="yEGrShc0nkDmfcy5XUrJ-5" value="Bloggers" style="rounded=0;whiteSpace=wrap;html=1;" parent="WIyWlLk6GJQsqaUBKTNV-1" vertex="1">
          <mxGeometry x="150" y="230" width="120" height="60" as="geometry" />
        </mxCell>
        <mxCell id="b2F76i5s4Bah9nfROhkG-20" style="edgeStyle=orthogonalEdgeStyle;rounded=0;orthogonalLoop=1;jettySize=auto;html=1;entryX=0.5;entryY=0;entryDx=0;entryDy=0;" parent="WIyWlLk6GJQsqaUBKTNV-1" source="yEGrShc0nkDmfcy5XUrJ-6" target="b2F76i5s4Bah9nfROhkG-17" edge="1">
          <mxGeometry relative="1" as="geometry" />
        </mxCell>
        <mxCell id="yEGrShc0nkDmfcy5XUrJ-6" value="User/readers" style="rounded=0;whiteSpace=wrap;html=1;" parent="WIyWlLk6GJQsqaUBKTNV-1" vertex="1">
          <mxGeometry x="354" y="230" width="120" height="60" as="geometry" />
        </mxCell>
        <mxCell id="yEGrShc0nkDmfcy5XUrJ-7" value="modderators" style="rounded=0;whiteSpace=wrap;html=1;" parent="WIyWlLk6GJQsqaUBKTNV-1" vertex="1">
          <mxGeometry x="590" y="230" width="120" height="60" as="geometry" />
        </mxCell>
        <mxCell id="yEGrShc0nkDmfcy5XUrJ-10" value="" style="endArrow=classic;html=1;rounded=0;entryX=0.5;entryY=0;entryDx=0;entryDy=0;exitX=0.5;exitY=1;exitDx=0;exitDy=0;" parent="WIyWlLk6GJQsqaUBKTNV-1" source="yEGrShc0nkDmfcy5XUrJ-3" target="yEGrShc0nkDmfcy5XUrJ-5" edge="1">
          <mxGeometry width="50" height="50" relative="1" as="geometry">
            <mxPoint x="410" y="200" as="sourcePoint" />
            <mxPoint x="202.68" y="230" as="targetPoint" />
            <Array as="points">
              <mxPoint x="414" y="200" />
              <mxPoint x="210" y="200" />
            </Array>
          </mxGeometry>
        </mxCell>
        <mxCell id="yEGrShc0nkDmfcy5XUrJ-12" value="" style="endArrow=classic;html=1;rounded=0;entryX=0.411;entryY=-0.019;entryDx=0;entryDy=0;exitX=0.5;exitY=1;exitDx=0;exitDy=0;entryPerimeter=0;" parent="WIyWlLk6GJQsqaUBKTNV-1" source="yEGrShc0nkDmfcy5XUrJ-3" target="yEGrShc0nkDmfcy5XUrJ-7" edge="1">
          <mxGeometry width="50" height="50" relative="1" as="geometry">
            <mxPoint x="424" y="200" as="sourcePoint" />
            <mxPoint x="220" y="240" as="targetPoint" />
            <Array as="points">
              <mxPoint x="414" y="200" />
              <mxPoint x="640" y="200" />
            </Array>
          </mxGeometry>
        </mxCell>
        <mxCell id="yEGrShc0nkDmfcy5XUrJ-15" value="" style="endArrow=classic;html=1;rounded=0;entryX=0.5;entryY=0;entryDx=0;entryDy=0;" parent="WIyWlLk6GJQsqaUBKTNV-1" target="yEGrShc0nkDmfcy5XUrJ-6" edge="1">
          <mxGeometry width="50" height="50" relative="1" as="geometry">
            <mxPoint x="414" y="190" as="sourcePoint" />
            <mxPoint x="420" y="140" as="targetPoint" />
          </mxGeometry>
        </mxCell>
        <mxCell id="b2F76i5s4Bah9nfROhkG-29" style="edgeStyle=orthogonalEdgeStyle;rounded=0;orthogonalLoop=1;jettySize=auto;html=1;entryX=1;entryY=0.5;entryDx=0;entryDy=0;" parent="WIyWlLk6GJQsqaUBKTNV-1" source="yEGrShc0nkDmfcy5XUrJ-16" target="b2F76i5s4Bah9nfROhkG-15" edge="1">
          <mxGeometry relative="1" as="geometry">
            <mxPoint x="200" y="914" as="targetPoint" />
            <Array as="points">
              <mxPoint x="200" y="900" />
            </Array>
          </mxGeometry>
        </mxCell>
        <mxCell id="b2F76i5s4Bah9nfROhkG-60" style="edgeStyle=orthogonalEdgeStyle;rounded=0;orthogonalLoop=1;jettySize=auto;html=1;entryX=0;entryY=0.5;entryDx=0;entryDy=0;" parent="WIyWlLk6GJQsqaUBKTNV-1" source="yEGrShc0nkDmfcy5XUrJ-16" target="b2F76i5s4Bah9nfROhkG-59" edge="1">
          <mxGeometry relative="1" as="geometry">
            <mxPoint x="200" y="1012.5" as="targetPoint" />
            <Array as="points">
              <mxPoint x="200" y="716" />
              <mxPoint x="201" y="980" />
            </Array>
          </mxGeometry>
        </mxCell>
        <mxCell id="yEGrShc0nkDmfcy5XUrJ-16" value="login" style="rhombus;whiteSpace=wrap;html=1;" parent="WIyWlLk6GJQsqaUBKTNV-1" vertex="1">
          <mxGeometry x="160" y="340" width="80" height="80" as="geometry" />
        </mxCell>
        <mxCell id="b2F76i5s4Bah9nfROhkG-57" style="edgeStyle=orthogonalEdgeStyle;rounded=0;orthogonalLoop=1;jettySize=auto;html=1;entryX=0;entryY=0.5;entryDx=0;entryDy=0;" parent="WIyWlLk6GJQsqaUBKTNV-1" source="yEGrShc0nkDmfcy5XUrJ-17" target="b2F76i5s4Bah9nfROhkG-12" edge="1">
          <mxGeometry relative="1" as="geometry">
            <mxPoint x="650" y="813.8095238095239" as="targetPoint" />
            <Array as="points">
              <mxPoint x="650" y="790" />
            </Array>
          </mxGeometry>
        </mxCell>
        <mxCell id="b2F76i5s4Bah9nfROhkG-62" style="edgeStyle=orthogonalEdgeStyle;rounded=0;orthogonalLoop=1;jettySize=auto;html=1;entryX=1;entryY=0.5;entryDx=0;entryDy=0;" parent="WIyWlLk6GJQsqaUBKTNV-1" source="yEGrShc0nkDmfcy5XUrJ-17" target="b2F76i5s4Bah9nfROhkG-59" edge="1">
          <mxGeometry relative="1" as="geometry">
            <mxPoint x="650" y="980" as="targetPoint" />
            <Array as="points">
              <mxPoint x="650" y="705" />
              <mxPoint x="651" y="980" />
            </Array>
          </mxGeometry>
        </mxCell>
        <mxCell id="yEGrShc0nkDmfcy5XUrJ-17" value="login" style="rhombus;whiteSpace=wrap;html=1;" parent="WIyWlLk6GJQsqaUBKTNV-1" vertex="1">
          <mxGeometry x="610" y="350" width="80" height="80" as="geometry" />
        </mxCell>
        <mxCell id="yEGrShc0nkDmfcy5XUrJ-18" value="" style="endArrow=classic;html=1;rounded=0;exitX=0.42;exitY=1.004;exitDx=0;exitDy=0;entryX=0.5;entryY=0;entryDx=0;entryDy=0;exitPerimeter=0;" parent="WIyWlLk6GJQsqaUBKTNV-1" source="yEGrShc0nkDmfcy5XUrJ-5" target="yEGrShc0nkDmfcy5XUrJ-16" edge="1">
          <mxGeometry width="50" height="50" relative="1" as="geometry">
            <mxPoint x="200" y="340" as="sourcePoint" />
            <mxPoint x="170" y="320" as="targetPoint" />
          </mxGeometry>
        </mxCell>
        <mxCell id="yEGrShc0nkDmfcy5XUrJ-19" value="" style="endArrow=classic;html=1;rounded=0;exitX=0.5;exitY=1;exitDx=0;exitDy=0;entryX=0.5;entryY=0;entryDx=0;entryDy=0;" parent="WIyWlLk6GJQsqaUBKTNV-1" source="yEGrShc0nkDmfcy5XUrJ-7" target="yEGrShc0nkDmfcy5XUrJ-17" edge="1">
          <mxGeometry width="50" height="50" relative="1" as="geometry">
            <mxPoint x="481" y="320" as="sourcePoint" />
            <mxPoint x="480" y="368" as="targetPoint" />
          </mxGeometry>
        </mxCell>
        <mxCell id="yEGrShc0nkDmfcy5XUrJ-20" value="" style="endArrow=classic;html=1;rounded=0;entryX=0;entryY=0.5;entryDx=0;entryDy=0;exitX=0;exitY=0.5;exitDx=0;exitDy=0;" parent="WIyWlLk6GJQsqaUBKTNV-1" source="yEGrShc0nkDmfcy5XUrJ-16" target="yEGrShc0nkDmfcy5XUrJ-5" edge="1">
          <mxGeometry width="50" height="50" relative="1" as="geometry">
            <mxPoint x="150" y="370" as="sourcePoint" />
            <mxPoint x="140" y="360" as="targetPoint" />
            <Array as="points">
              <mxPoint x="120" y="380" />
              <mxPoint x="120" y="260" />
            </Array>
          </mxGeometry>
        </mxCell>
        <mxCell id="yEGrShc0nkDmfcy5XUrJ-21" value="" style="endArrow=classic;html=1;rounded=0;entryX=1;entryY=0.5;entryDx=0;entryDy=0;exitX=1;exitY=0.5;exitDx=0;exitDy=0;" parent="WIyWlLk6GJQsqaUBKTNV-1" source="yEGrShc0nkDmfcy5XUrJ-17" target="yEGrShc0nkDmfcy5XUrJ-7" edge="1">
          <mxGeometry width="50" height="50" relative="1" as="geometry">
            <mxPoint x="770" y="380" as="sourcePoint" />
            <mxPoint x="760" y="260" as="targetPoint" />
            <Array as="points">
              <mxPoint x="730" y="390" />
              <mxPoint x="730" y="260" />
            </Array>
          </mxGeometry>
        </mxCell>
        <mxCell id="yEGrShc0nkDmfcy5XUrJ-22" value="post blog" style="rounded=0;whiteSpace=wrap;html=1;" parent="WIyWlLk6GJQsqaUBKTNV-1" vertex="1">
          <mxGeometry x="30" y="440" width="120" height="40" as="geometry" />
        </mxCell>
        <mxCell id="yEGrShc0nkDmfcy5XUrJ-23" value="edit blog" style="rounded=0;whiteSpace=wrap;html=1;" parent="WIyWlLk6GJQsqaUBKTNV-1" vertex="1">
          <mxGeometry x="30" y="490" width="120" height="40" as="geometry" />
        </mxCell>
        <mxCell id="yEGrShc0nkDmfcy5XUrJ-24" value="delete blog" style="rounded=0;whiteSpace=wrap;html=1;" parent="WIyWlLk6GJQsqaUBKTNV-1" vertex="1">
          <mxGeometry x="30" y="540" width="120" height="40" as="geometry" />
        </mxCell>
        <mxCell id="yEGrShc0nkDmfcy5XUrJ-25" value="update blog" style="rounded=0;whiteSpace=wrap;html=1;" parent="WIyWlLk6GJQsqaUBKTNV-1" vertex="1">
          <mxGeometry x="30" y="595" width="120" height="40" as="geometry" />
        </mxCell>
        <mxCell id="yEGrShc0nkDmfcy5XUrJ-26" value="view comments" style="rounded=0;whiteSpace=wrap;html=1;" parent="WIyWlLk6GJQsqaUBKTNV-1" vertex="1">
          <mxGeometry x="30" y="650" width="120" height="40" as="geometry" />
        </mxCell>
        <mxCell id="yEGrShc0nkDmfcy5XUrJ-28" value="view profile" style="rounded=0;whiteSpace=wrap;html=1;" parent="WIyWlLk6GJQsqaUBKTNV-1" vertex="1">
          <mxGeometry x="270" y="580" width="120" height="40" as="geometry" />
        </mxCell>
        <mxCell id="yEGrShc0nkDmfcy5XUrJ-29" value="delete blog" style="rounded=0;whiteSpace=wrap;html=1;" parent="WIyWlLk6GJQsqaUBKTNV-1" vertex="1">
          <mxGeometry x="690" y="595" width="120" height="40" as="geometry" />
        </mxCell>
        <mxCell id="yEGrShc0nkDmfcy5XUrJ-33" value="view blog" style="rounded=0;whiteSpace=wrap;html=1;" parent="WIyWlLk6GJQsqaUBKTNV-1" vertex="1">
          <mxGeometry x="690" y="440" width="120" height="40" as="geometry" />
        </mxCell>
        <mxCell id="yEGrShc0nkDmfcy5XUrJ-34" value="view comment" style="rounded=0;whiteSpace=wrap;html=1;" parent="WIyWlLk6GJQsqaUBKTNV-1" vertex="1">
          <mxGeometry x="690" y="540" width="120" height="40" as="geometry" />
        </mxCell>
        <mxCell id="yEGrShc0nkDmfcy5XUrJ-35" value="delete comment" style="rounded=0;whiteSpace=wrap;html=1;" parent="WIyWlLk6GJQsqaUBKTNV-1" vertex="1">
          <mxGeometry x="690" y="490" width="120" height="40" as="geometry" />
        </mxCell>
        <mxCell id="b2F76i5s4Bah9nfROhkG-2" value="view profile" style="rounded=0;whiteSpace=wrap;html=1;" parent="WIyWlLk6GJQsqaUBKTNV-1" vertex="1">
          <mxGeometry x="690" y="650" width="120" height="40" as="geometry" />
        </mxCell>
        <mxCell id="b2F76i5s4Bah9nfROhkG-3" value="update profile" style="rounded=0;whiteSpace=wrap;html=1;" parent="WIyWlLk6GJQsqaUBKTNV-1" vertex="1">
          <mxGeometry x="270" y="640" width="120" height="40" as="geometry" />
        </mxCell>
        <mxCell id="b2F76i5s4Bah9nfROhkG-4" value="update profile" style="rounded=0;whiteSpace=wrap;html=1;" parent="WIyWlLk6GJQsqaUBKTNV-1" vertex="1">
          <mxGeometry x="690" y="710" width="120" height="40" as="geometry" />
        </mxCell>
        <mxCell id="b2F76i5s4Bah9nfROhkG-5" value="view blog" style="rounded=0;whiteSpace=wrap;html=1;" parent="WIyWlLk6GJQsqaUBKTNV-1" vertex="1">
          <mxGeometry x="280" y="310" width="120" height="40" as="geometry" />
        </mxCell>
        <mxCell id="b2F76i5s4Bah9nfROhkG-6" value="view comments" style="rounded=0;whiteSpace=wrap;html=1;" parent="WIyWlLk6GJQsqaUBKTNV-1" vertex="1">
          <mxGeometry x="280" y="380" width="120" height="40" as="geometry" />
        </mxCell>
        <mxCell id="b2F76i5s4Bah9nfROhkG-7" value="post comment" style="rounded=0;whiteSpace=wrap;html=1;" parent="WIyWlLk6GJQsqaUBKTNV-1" vertex="1">
          <mxGeometry x="270" y="520" width="120" height="40" as="geometry" />
        </mxCell>
        <mxCell id="b2F76i5s4Bah9nfROhkG-8" value="view profile" style="rounded=0;whiteSpace=wrap;html=1;" parent="WIyWlLk6GJQsqaUBKTNV-1" vertex="1">
          <mxGeometry x="26" y="710" width="120" height="40" as="geometry" />
        </mxCell>
        <mxCell id="b2F76i5s4Bah9nfROhkG-9" value="update profile" style="rounded=0;whiteSpace=wrap;html=1;" parent="WIyWlLk6GJQsqaUBKTNV-1" vertex="1">
          <mxGeometry x="26" y="760" width="120" height="40" as="geometry" />
        </mxCell>
        <mxCell id="b2F76i5s4Bah9nfROhkG-10" value="send messege" style="rounded=0;whiteSpace=wrap;html=1;" parent="WIyWlLk6GJQsqaUBKTNV-1" vertex="1">
          <mxGeometry x="26" y="820" width="120" height="40" as="geometry" />
        </mxCell>
        <mxCell id="b2F76i5s4Bah9nfROhkG-11" value="send messege" style="rounded=0;whiteSpace=wrap;html=1;" parent="WIyWlLk6GJQsqaUBKTNV-1" vertex="1">
          <mxGeometry x="270" y="690" width="120" height="40" as="geometry" />
        </mxCell>
        <mxCell id="b2F76i5s4Bah9nfROhkG-12" value="send messege" style="rounded=0;whiteSpace=wrap;html=1;" parent="WIyWlLk6GJQsqaUBKTNV-1" vertex="1">
          <mxGeometry x="690" y="770" width="120" height="40" as="geometry" />
        </mxCell>
        <mxCell id="b2F76i5s4Bah9nfROhkG-14" value="like blogs" style="rounded=0;whiteSpace=wrap;html=1;" parent="WIyWlLk6GJQsqaUBKTNV-1" vertex="1">
          <mxGeometry x="270" y="750" width="120" height="40" as="geometry" />
        </mxCell>
        <mxCell id="b2F76i5s4Bah9nfROhkG-15" value="like blogs" style="rounded=0;whiteSpace=wrap;html=1;" parent="WIyWlLk6GJQsqaUBKTNV-1" vertex="1">
          <mxGeometry x="26" y="880" width="120" height="40" as="geometry" />
        </mxCell>
        <mxCell id="b2F76i5s4Bah9nfROhkG-24" style="edgeStyle=orthogonalEdgeStyle;rounded=0;orthogonalLoop=1;jettySize=auto;html=1;entryX=1;entryY=0.75;entryDx=0;entryDy=0;" parent="WIyWlLk6GJQsqaUBKTNV-1" source="b2F76i5s4Bah9nfROhkG-17" target="b2F76i5s4Bah9nfROhkG-14" edge="1">
          <mxGeometry relative="1" as="geometry">
            <mxPoint x="414.0000000000001" y="720" as="targetPoint" />
            <Array as="points">
              <mxPoint x="414" y="780" />
            </Array>
          </mxGeometry>
        </mxCell>
        <mxCell id="b2F76i5s4Bah9nfROhkG-61" style="edgeStyle=orthogonalEdgeStyle;rounded=0;orthogonalLoop=1;jettySize=auto;html=1;entryX=0.5;entryY=0;entryDx=0;entryDy=0;" parent="WIyWlLk6GJQsqaUBKTNV-1" source="b2F76i5s4Bah9nfROhkG-17" target="b2F76i5s4Bah9nfROhkG-59" edge="1">
          <mxGeometry relative="1" as="geometry" />
        </mxCell>
        <mxCell id="b2F76i5s4Bah9nfROhkG-17" value="login" style="rhombus;whiteSpace=wrap;html=1;" parent="WIyWlLk6GJQsqaUBKTNV-1" vertex="1">
          <mxGeometry x="374" y="430" width="80" height="80" as="geometry" />
        </mxCell>
        <mxCell id="b2F76i5s4Bah9nfROhkG-18" value="" style="endArrow=classic;html=1;rounded=0;entryX=1;entryY=0.5;entryDx=0;entryDy=0;exitX=1;exitY=0.5;exitDx=0;exitDy=0;" parent="WIyWlLk6GJQsqaUBKTNV-1" source="b2F76i5s4Bah9nfROhkG-17" target="yEGrShc0nkDmfcy5XUrJ-6" edge="1">
          <mxGeometry width="50" height="50" relative="1" as="geometry">
            <mxPoint x="530" y="460" as="sourcePoint" />
            <mxPoint x="470" y="340" as="targetPoint" />
            <Array as="points">
              <mxPoint x="510" y="470" />
              <mxPoint x="510" y="260" />
            </Array>
          </mxGeometry>
        </mxCell>
        <mxCell id="b2F76i5s4Bah9nfROhkG-21" value="" style="endArrow=classic;html=1;rounded=0;entryX=1;entryY=0.5;entryDx=0;entryDy=0;exitX=0.5;exitY=1;exitDx=0;exitDy=0;" parent="WIyWlLk6GJQsqaUBKTNV-1" source="yEGrShc0nkDmfcy5XUrJ-6" target="b2F76i5s4Bah9nfROhkG-5" edge="1">
          <mxGeometry width="50" height="50" relative="1" as="geometry">
            <mxPoint x="450" y="334" as="sourcePoint" />
            <mxPoint x="420" y="310" as="targetPoint" />
            <Array as="points">
              <mxPoint x="414" y="330" />
            </Array>
          </mxGeometry>
        </mxCell>
        <mxCell id="b2F76i5s4Bah9nfROhkG-22" value="" style="endArrow=classic;html=1;rounded=0;entryX=1;entryY=0.5;entryDx=0;entryDy=0;exitX=0.5;exitY=1;exitDx=0;exitDy=0;" parent="WIyWlLk6GJQsqaUBKTNV-1" edge="1">
          <mxGeometry width="50" height="50" relative="1" as="geometry">
            <mxPoint x="414" y="360" as="sourcePoint" />
            <mxPoint x="400" y="400" as="targetPoint" />
            <Array as="points">
              <mxPoint x="414" y="400" />
            </Array>
          </mxGeometry>
        </mxCell>
        <mxCell id="b2F76i5s4Bah9nfROhkG-25" value="" style="endArrow=classic;html=1;rounded=0;entryX=1;entryY=0.5;entryDx=0;entryDy=0;exitX=0.5;exitY=1;exitDx=0;exitDy=0;" parent="WIyWlLk6GJQsqaUBKTNV-1" source="b2F76i5s4Bah9nfROhkG-17" target="b2F76i5s4Bah9nfROhkG-7" edge="1">
          <mxGeometry width="50" height="50" relative="1" as="geometry">
            <mxPoint x="310" y="550" as="sourcePoint" />
            <mxPoint x="360" y="500" as="targetPoint" />
            <Array as="points">
              <mxPoint x="414" y="540" />
            </Array>
          </mxGeometry>
        </mxCell>
        <mxCell id="b2F76i5s4Bah9nfROhkG-26" value="" style="endArrow=classic;html=1;rounded=0;entryX=1.009;entryY=0.518;entryDx=0;entryDy=0;exitX=0.5;exitY=1;exitDx=0;exitDy=0;entryPerimeter=0;" parent="WIyWlLk6GJQsqaUBKTNV-1" source="b2F76i5s4Bah9nfROhkG-17" target="yEGrShc0nkDmfcy5XUrJ-28" edge="1">
          <mxGeometry width="50" height="50" relative="1" as="geometry">
            <mxPoint x="414" y="570" as="sourcePoint" />
            <mxPoint x="390" y="600" as="targetPoint" />
            <Array as="points">
              <mxPoint x="414" y="600" />
            </Array>
          </mxGeometry>
        </mxCell>
        <mxCell id="b2F76i5s4Bah9nfROhkG-27" value="" style="endArrow=classic;html=1;rounded=0;entryX=1.008;entryY=0.616;entryDx=0;entryDy=0;exitX=0.5;exitY=1;exitDx=0;exitDy=0;entryPerimeter=0;" parent="WIyWlLk6GJQsqaUBKTNV-1" source="b2F76i5s4Bah9nfROhkG-17" target="b2F76i5s4Bah9nfROhkG-3" edge="1">
          <mxGeometry width="50" height="50" relative="1" as="geometry">
            <mxPoint x="424" y="520" as="sourcePoint" />
            <mxPoint x="400" y="610" as="targetPoint" />
            <Array as="points">
              <mxPoint x="414" y="665" />
            </Array>
          </mxGeometry>
        </mxCell>
        <mxCell id="b2F76i5s4Bah9nfROhkG-28" value="" style="endArrow=classic;html=1;rounded=0;entryX=1;entryY=0.5;entryDx=0;entryDy=0;exitX=0.5;exitY=1;exitDx=0;exitDy=0;" parent="WIyWlLk6GJQsqaUBKTNV-1" source="b2F76i5s4Bah9nfROhkG-17" target="b2F76i5s4Bah9nfROhkG-11" edge="1">
          <mxGeometry width="50" height="50" relative="1" as="geometry">
            <mxPoint x="424" y="520" as="sourcePoint" />
            <mxPoint x="401" y="675" as="targetPoint" />
            <Array as="points">
              <mxPoint x="414" y="710" />
            </Array>
          </mxGeometry>
        </mxCell>
        <mxCell id="b2F76i5s4Bah9nfROhkG-30" value="" style="endArrow=classic;html=1;rounded=0;entryX=1;entryY=0.5;entryDx=0;entryDy=0;" parent="WIyWlLk6GJQsqaUBKTNV-1" target="yEGrShc0nkDmfcy5XUrJ-22" edge="1">
          <mxGeometry width="50" height="50" relative="1" as="geometry">
            <mxPoint x="200" y="420" as="sourcePoint" />
            <mxPoint x="300" y="430" as="targetPoint" />
            <Array as="points">
              <mxPoint x="200" y="460" />
            </Array>
          </mxGeometry>
        </mxCell>
        <mxCell id="b2F76i5s4Bah9nfROhkG-31" value="" style="endArrow=classic;html=1;rounded=0;entryX=1;entryY=0.5;entryDx=0;entryDy=0;" parent="WIyWlLk6GJQsqaUBKTNV-1" target="yEGrShc0nkDmfcy5XUrJ-23" edge="1">
          <mxGeometry width="50" height="50" relative="1" as="geometry">
            <mxPoint x="200" y="420" as="sourcePoint" />
            <mxPoint x="160" y="470" as="targetPoint" />
            <Array as="points">
              <mxPoint x="200" y="510" />
            </Array>
          </mxGeometry>
        </mxCell>
        <mxCell id="b2F76i5s4Bah9nfROhkG-32" value="" style="endArrow=classic;html=1;rounded=0;entryX=1;entryY=0.5;entryDx=0;entryDy=0;" parent="WIyWlLk6GJQsqaUBKTNV-1" target="yEGrShc0nkDmfcy5XUrJ-24" edge="1">
          <mxGeometry width="50" height="50" relative="1" as="geometry">
            <mxPoint x="200" y="420" as="sourcePoint" />
            <mxPoint x="160" y="520" as="targetPoint" />
            <Array as="points">
              <mxPoint x="200" y="560" />
            </Array>
          </mxGeometry>
        </mxCell>
        <mxCell id="b2F76i5s4Bah9nfROhkG-33" value="" style="endArrow=classic;html=1;rounded=0;entryX=1;entryY=0.625;entryDx=0;entryDy=0;entryPerimeter=0;" parent="WIyWlLk6GJQsqaUBKTNV-1" target="yEGrShc0nkDmfcy5XUrJ-25" edge="1">
          <mxGeometry width="50" height="50" relative="1" as="geometry">
            <mxPoint x="200" y="420" as="sourcePoint" />
            <mxPoint x="163" y="571" as="targetPoint" />
            <Array as="points">
              <mxPoint x="200" y="620" />
            </Array>
          </mxGeometry>
        </mxCell>
        <mxCell id="b2F76i5s4Bah9nfROhkG-34" value="" style="endArrow=classic;html=1;rounded=0;entryX=1;entryY=0.5;entryDx=0;entryDy=0;exitX=0.5;exitY=1;exitDx=0;exitDy=0;" parent="WIyWlLk6GJQsqaUBKTNV-1" source="yEGrShc0nkDmfcy5XUrJ-16" target="yEGrShc0nkDmfcy5XUrJ-26" edge="1">
          <mxGeometry width="50" height="50" relative="1" as="geometry">
            <mxPoint x="200" y="470" as="sourcePoint" />
            <mxPoint x="150" y="670" as="targetPoint" />
            <Array as="points">
              <mxPoint x="200" y="670" />
            </Array>
          </mxGeometry>
        </mxCell>
        <mxCell id="b2F76i5s4Bah9nfROhkG-35" value="" style="endArrow=classic;html=1;rounded=0;exitX=0.5;exitY=1;exitDx=0;exitDy=0;entryX=1;entryY=0.5;entryDx=0;entryDy=0;" parent="WIyWlLk6GJQsqaUBKTNV-1" source="yEGrShc0nkDmfcy5XUrJ-16" target="b2F76i5s4Bah9nfROhkG-8" edge="1">
          <mxGeometry width="50" height="50" relative="1" as="geometry">
            <mxPoint x="200" y="480" as="sourcePoint" />
            <mxPoint x="150" y="730" as="targetPoint" />
            <Array as="points">
              <mxPoint x="200" y="730" />
            </Array>
          </mxGeometry>
        </mxCell>
        <mxCell id="b2F76i5s4Bah9nfROhkG-36" value="" style="endArrow=classic;html=1;rounded=0;exitX=0.5;exitY=1;exitDx=0;exitDy=0;entryX=1;entryY=0.5;entryDx=0;entryDy=0;" parent="WIyWlLk6GJQsqaUBKTNV-1" source="yEGrShc0nkDmfcy5XUrJ-16" target="b2F76i5s4Bah9nfROhkG-9" edge="1">
          <mxGeometry width="50" height="50" relative="1" as="geometry">
            <mxPoint x="196" y="470" as="sourcePoint" />
            <mxPoint x="150" y="780" as="targetPoint" />
            <Array as="points">
              <mxPoint x="200" y="780" />
            </Array>
          </mxGeometry>
        </mxCell>
        <mxCell id="b2F76i5s4Bah9nfROhkG-38" value="" style="endArrow=classic;html=1;rounded=0;exitX=0.5;exitY=1;exitDx=0;exitDy=0;entryX=1;entryY=0.5;entryDx=0;entryDy=0;" parent="WIyWlLk6GJQsqaUBKTNV-1" source="yEGrShc0nkDmfcy5XUrJ-16" target="b2F76i5s4Bah9nfROhkG-10" edge="1">
          <mxGeometry width="50" height="50" relative="1" as="geometry">
            <mxPoint x="200" y="480" as="sourcePoint" />
            <mxPoint x="150" y="840" as="targetPoint" />
            <Array as="points">
              <mxPoint x="200" y="840" />
            </Array>
          </mxGeometry>
        </mxCell>
        <mxCell id="b2F76i5s4Bah9nfROhkG-49" value="" style="endArrow=classic;html=1;rounded=0;entryX=0;entryY=0.5;entryDx=0;entryDy=0;exitX=0.5;exitY=1;exitDx=0;exitDy=0;" parent="WIyWlLk6GJQsqaUBKTNV-1" source="yEGrShc0nkDmfcy5XUrJ-17" target="yEGrShc0nkDmfcy5XUrJ-33" edge="1">
          <mxGeometry width="50" height="50" relative="1" as="geometry">
            <mxPoint x="584" y="440" as="sourcePoint" />
            <mxPoint x="534" y="480" as="targetPoint" />
            <Array as="points">
              <mxPoint x="650" y="460" />
            </Array>
          </mxGeometry>
        </mxCell>
        <mxCell id="b2F76i5s4Bah9nfROhkG-50" value="" style="endArrow=classic;html=1;rounded=0;entryX=0;entryY=0.5;entryDx=0;entryDy=0;exitX=0.5;exitY=1;exitDx=0;exitDy=0;" parent="WIyWlLk6GJQsqaUBKTNV-1" source="yEGrShc0nkDmfcy5XUrJ-17" target="yEGrShc0nkDmfcy5XUrJ-35" edge="1">
          <mxGeometry width="50" height="50" relative="1" as="geometry">
            <mxPoint x="584" y="440" as="sourcePoint" />
            <mxPoint x="534" y="530" as="targetPoint" />
            <Array as="points">
              <mxPoint x="650" y="510" />
            </Array>
          </mxGeometry>
        </mxCell>
        <mxCell id="b2F76i5s4Bah9nfROhkG-51" value="" style="endArrow=classic;html=1;rounded=0;entryX=0;entryY=0.5;entryDx=0;entryDy=0;exitX=0.5;exitY=1;exitDx=0;exitDy=0;" parent="WIyWlLk6GJQsqaUBKTNV-1" source="yEGrShc0nkDmfcy5XUrJ-17" target="yEGrShc0nkDmfcy5XUrJ-34" edge="1">
          <mxGeometry width="50" height="50" relative="1" as="geometry">
            <mxPoint x="584" y="440" as="sourcePoint" />
            <mxPoint x="534" y="580" as="targetPoint" />
            <Array as="points">
              <mxPoint x="650" y="560" />
            </Array>
          </mxGeometry>
        </mxCell>
        <mxCell id="b2F76i5s4Bah9nfROhkG-52" value="" style="endArrow=classic;html=1;rounded=0;entryX=0;entryY=0.5;entryDx=0;entryDy=0;exitX=0.5;exitY=1;exitDx=0;exitDy=0;" parent="WIyWlLk6GJQsqaUBKTNV-1" source="yEGrShc0nkDmfcy5XUrJ-17" target="yEGrShc0nkDmfcy5XUrJ-29" edge="1">
          <mxGeometry width="50" height="50" relative="1" as="geometry">
            <mxPoint x="584" y="440" as="sourcePoint" />
            <mxPoint x="534" y="640" as="targetPoint" />
            <Array as="points">
              <mxPoint x="650" y="615" />
            </Array>
          </mxGeometry>
        </mxCell>
        <mxCell id="b2F76i5s4Bah9nfROhkG-53" value="" style="endArrow=classic;html=1;rounded=0;entryX=0;entryY=0.5;entryDx=0;entryDy=0;exitX=0.5;exitY=1;exitDx=0;exitDy=0;" parent="WIyWlLk6GJQsqaUBKTNV-1" source="yEGrShc0nkDmfcy5XUrJ-17" target="b2F76i5s4Bah9nfROhkG-2" edge="1">
          <mxGeometry width="50" height="50" relative="1" as="geometry">
            <mxPoint x="584" y="440" as="sourcePoint" />
            <mxPoint x="534" y="690" as="targetPoint" />
            <Array as="points">
              <mxPoint x="650" y="670" />
            </Array>
          </mxGeometry>
        </mxCell>
        <mxCell id="b2F76i5s4Bah9nfROhkG-54" value="" style="endArrow=classic;html=1;rounded=0;exitX=0.5;exitY=1;exitDx=0;exitDy=0;entryX=0;entryY=0.5;entryDx=0;entryDy=0;" parent="WIyWlLk6GJQsqaUBKTNV-1" source="yEGrShc0nkDmfcy5XUrJ-17" target="b2F76i5s4Bah9nfROhkG-4" edge="1">
          <mxGeometry width="50" height="50" relative="1" as="geometry">
            <mxPoint x="584" y="440" as="sourcePoint" />
            <mxPoint x="534" y="750" as="targetPoint" />
            <Array as="points">
              <mxPoint x="650" y="730" />
            </Array>
          </mxGeometry>
        </mxCell>
        <mxCell id="b2F76i5s4Bah9nfROhkG-63" style="edgeStyle=orthogonalEdgeStyle;rounded=0;orthogonalLoop=1;jettySize=auto;html=1;" parent="WIyWlLk6GJQsqaUBKTNV-1" source="b2F76i5s4Bah9nfROhkG-59" target="b2F76i5s4Bah9nfROhkG-66" edge="1">
          <mxGeometry relative="1" as="geometry">
            <mxPoint x="413" y="1020" as="targetPoint" />
          </mxGeometry>
        </mxCell>
        <mxCell id="b2F76i5s4Bah9nfROhkG-59" value="log out" style="rounded=0;whiteSpace=wrap;html=1;" parent="WIyWlLk6GJQsqaUBKTNV-1" vertex="1">
          <mxGeometry x="353" y="930" width="120" height="40" as="geometry" />
        </mxCell>
        <mxCell id="b2F76i5s4Bah9nfROhkG-66" value="End" style="rounded=1;whiteSpace=wrap;html=1;" parent="WIyWlLk6GJQsqaUBKTNV-1" vertex="1">
          <mxGeometry x="353" y="1020" width="120" height="60" as="geometry" />
        </mxCell>
      </root>
    </mxGraphModel>
  </diagram>
</mxfile>
